<?xml version="1.0" encoding="UTF-8" standalone="no"?>
<!-- Created with Inkscape (http://www.inkscape.org/) -->

<svg
   xmlns:dc="http://purl.org/dc/elements/1.1/"
   xmlns:cc="http://creativecommons.org/ns#"
   xmlns:rdf="http://www.w3.org/1999/02/22-rdf-syntax-ns#"
   xmlns:svg="http://www.w3.org/2000/svg"
   xmlns="http://www.w3.org/2000/svg"
   xmlns:sodipodi="http://sodipodi.sourceforge.net/DTD/sodipodi-0.dtd"
   xmlns:inkscape="http://www.inkscape.org/namespaces/inkscape"
   version="1.1"
   width="24"
   height="24"
   id="svg7384"
   inkscape:version="0.48.4 r9939"
   sodipodi:docname="edit-find-symbolic.svg">
  <sodipodi:namedview
     pagecolor="#ffffff"
     bordercolor="#666666"
     borderopacity="1"
     objecttolerance="10"
     gridtolerance="10"
     guidetolerance="10"
     inkscape:pageopacity="0"
     inkscape:pageshadow="2"
     inkscape:window-width="1366"
     inkscape:window-height="713"
     id="namedview7"
     showgrid="true"
     showguides="true"
     inkscape:guide-bbox="true"
     inkscape:zoom="39.6875"
     inkscape:cx="13.001575"
     inkscape:cy="9.3858268"
     inkscape:window-x="0"
     inkscape:window-y="30"
     inkscape:window-maximized="1"
     inkscape:current-layer="svg7384">
    <inkscape:grid
       type="xygrid"
       id="grid2984"
       empspacing="12"
       visible="true"
       enabled="true"
       snapvisiblegridlinesonly="true" />
  </sodipodi:namedview>
  <title
     id="title9167">Gnome Symbolic Icon Theme</title>
  <defs
     id="defs11" />
  <metadata
     id="metadata90">
    <rdf:RDF>
      <cc:Work
         rdf:about="">
        <dc:format>image/svg+xml</dc:format>
        <dc:type
           rdf:resource="http://purl.org/dc/dcmitype/StillImage" />
        <dc:title>Gnome Symbolic Icon Theme</dc:title>
      </cc:Work>
    </rdf:RDF>
  </metadata>
  <path
     style="color:#bebebe;fill:#505050;fill-opacity:1;fill-rule:nonzero;stroke:none;stroke-width:1;marker:none;visibility:visible;display:inline;overflow:visible;enable-background:accumulate"
     d="m 10.25,4.9999225 c -2.8994947,0 -5.25,2.350505 -5.25,5.2499995 0,2.899495 2.3505053,5.25 5.25,5.25 1.127974,0 2.175508,-0.363363 3.03125,-0.96875 L 17.5,18.749922 c 0.34277,0.34277 0.90723,0.34277 1.25,0 0.34277,-0.34277 0.34277,-0.90723 0,-1.25 l -4.21875,-4.21875 C 15.136637,12.42543 15.5,11.377896 15.5,10.249922 15.5,7.3504275 13.149495,4.9999225 10.25,4.9999225 z m 0,1.375 c 2.140103,0 3.875,1.734897 3.875,3.8749995 0,2.140103 -1.734897,3.875 -3.875,3.875 -2.1401034,0 -3.875,-1.734897 -3.875,-3.875 0,-2.1401025 1.7348966,-3.8749995 3.875,-3.8749995 z"
     id="path2986-0"
     inkscape:connector-curvature="0" />
</svg>
